# Blender 4.3.2
# www.blender.org
mtllib playarea.mtl
o Cube
v 30.000000 1.000000 -30.000000
v 30.000000 -1.000000 -30.000000
v 30.000000 1.000000 30.000000
v 30.000000 -1.000000 30.000000
v -30.000000 1.000000 -30.000000
v -30.000000 -1.000000 -30.000000
v -30.000000 1.000000 30.000000
v -30.000000 -1.000000 30.000000
v -30.038542 0.999996 29.597258
v -30.038542 2.688358 29.597258
v -30.038542 0.999996 -29.929983
v -30.038542 2.688358 -29.929983
v -25.614792 0.999996 29.597258
v -25.614792 2.688358 29.597258
v -25.614792 0.999996 -29.929983
v -25.614792 2.688358 -29.929983
v -25.217064 0.999992 -26.166100
v -25.217064 5.128128 -26.166100
v -25.217064 0.999992 -30.191170
v -25.217064 5.128128 -30.191170
v 29.875338 0.999992 -26.166100
v 29.875338 5.128128 -26.166100
v 29.875338 0.999992 -30.191170
v 29.875338 5.128128 -30.191170
v 27.387587 1.000000 30.454796
v 27.387587 5.223335 30.454796
v 27.387587 1.000000 -25.824389
v 27.387587 5.223335 -25.824389
v 30.178520 1.000000 30.454796
v 30.178520 5.223335 30.454796
v 30.178520 1.000000 -25.824389
v 30.178520 5.223335 -25.824389
v -24.985220 0.999992 29.313496
v -24.985220 5.840614 29.313496
v -24.985220 0.999992 27.326559
v -24.985220 5.840614 27.326559
v 27.891270 0.999992 29.313496
v 27.891270 5.840614 29.313496
v 27.891270 0.999992 27.326559
v 27.891270 5.840614 27.326559
vn -0.0000 1.0000 -0.0000
vn -0.0000 -0.0000 1.0000
vn -1.0000 -0.0000 -0.0000
vn -0.0000 -1.0000 -0.0000
vn 1.0000 -0.0000 -0.0000
vn -0.0000 -0.0000 -1.0000
vt 0.625000 0.500000
vt 0.875000 0.500000
vt 0.875000 0.750000
vt 0.625000 0.750000
vt 0.375000 0.750000
vt 0.625000 1.000000
vt 0.375000 1.000000
vt 0.375000 0.000000
vt 0.625000 0.000000
vt 0.625000 0.250000
vt 0.375000 0.250000
vt 0.125000 0.500000
vt 0.375000 0.500000
vt 0.125000 0.750000
s 0
usemtl Material
f 1/1/1 5/2/1 7/3/1 3/4/1
f 4/5/2 3/4/2 7/6/2 8/7/2
f 8/8/3 7/9/3 5/10/3 6/11/3
f 6/12/4 2/13/4 4/5/4 8/14/4
f 2/13/5 1/1/5 3/4/5 4/5/5
f 6/11/6 5/10/6 1/1/6 2/13/6
f 9/8/3 10/9/3 12/10/3 11/11/3
f 11/11/6 12/10/6 16/1/6 15/13/6
f 15/13/5 16/1/5 14/4/5 13/5/5
f 13/5/2 14/4/2 10/6/2 9/7/2
f 11/12/4 15/13/4 13/5/4 9/14/4
f 16/1/1 12/2/1 10/3/1 14/4/1
f 17/8/3 18/9/3 20/10/3 19/11/3
f 19/11/6 20/10/6 24/1/6 23/13/6
f 23/13/5 24/1/5 22/4/5 21/5/5
f 21/5/2 22/4/2 18/6/2 17/7/2
f 19/12/4 23/13/4 21/5/4 17/14/4
f 24/1/1 20/2/1 18/3/1 22/4/1
f 25/8/3 26/9/3 28/10/3 27/11/3
f 27/11/6 28/10/6 32/1/6 31/13/6
f 31/13/5 32/1/5 30/4/5 29/5/5
f 29/5/2 30/4/2 26/6/2 25/7/2
f 27/12/4 31/13/4 29/5/4 25/14/4
f 32/1/1 28/2/1 26/3/1 30/4/1
f 33/8/3 34/9/3 36/10/3 35/11/3
f 35/11/6 36/10/6 40/1/6 39/13/6
f 39/13/5 40/1/5 38/4/5 37/5/5
f 37/5/2 38/4/2 34/6/2 33/7/2
f 35/12/4 39/13/4 37/5/4 33/14/4
f 40/1/1 36/2/1 34/3/1 38/4/1
