{"accessors":[{"bufferView":0,"byteOffset":0,"componentType":5126,"count":20553,"max":[15,2.5,15.0000009536743],"min":[-15.00000381469727,-0.5,-15.00000190734863],"normalized":false,"type":"VEC3"},{"bufferView":1,"byteOffset":0,"componentType":5126,"count":20553,"max":[1,0.989414811134338,1,1],"min":[-1,-1,-1,-1],"normalized":false,"type":"VEC4"},{"bufferView":2,"byteOffset":0,"componentType":5126,"count":20553,"max":[1,1,1],"min":[-1,-1,-1],"normalized":false,"type":"VEC3"},{"bufferView":3,"byteOffset":0,"componentType":5126,"count":20553,"max":[1,1],"min":[0,0],"normalized":false,"type":"VEC2"},{"bufferView":4,"byteOffset":0,"componentType":5123,"count":20553,"max":[20552],"min":[0],"normalized":false,"type":"SCALAR"}],"asset":{"generator":"Godot Engine v4.3.stable.official@77dcf97d82cbfe4e4615475fa52ca03da645dbd8","version":"2.0"},"bufferViews":[{"buffer":0,"byteLength":246636,"byteOffset":0,"byteStride":12,"target":34962},{"buffer":0,"byteLength":328848,"byteOffset":246636,"byteStride":16,"target":34962},{"buffer":0,"byteLength":246636,"byteOffset":575484,"byteStride":12,"target":34962},{"buffer":0,"byteLength":164424,"byteOffset":822120,"byteStride":8,"target":34962},{"buffer":0,"byteLength":41106,"byteOffset":986544,"target":34963}],"buffers":[{"byteLength":1027652,"uri":"playareashape0.bin"}],"extensionsUsed":["GODOT_single_root"],"materials":[{"extensions":{},"pbrMetallicRoughness":{"baseColorFactor":[0.99999988079071,0.99999988079071,0.99999988079071,1],"metallicFactor":0,"roughnessFactor":1}}],"meshes":[{"extras":{"targetNames":[]},"primitives":[{"attributes":{"NORMAL":2,"POSITION":0,"TANGENT":1,"TEXCOORD_0":3},"indices":4,"material":0,"mode":4}]}],"nodes":[{"children":[1],"name":"Node3D"},{"children":[2,3,7,15,16,17,18,19,20,21,22,23,24,25,26,27,28,29,30,31,32,33,34,35,36,37,38,39,40,41,42,43,44,45,46,47,48,49,50,51,52],"mesh":0,"name":"baseplate2","translation":[-0.04411554336548,-0.02375221252441,0.0831670761108398]},{"name":"CSGCylinder3D2","translation":[-5.25483703613281,-0.23462677001953,0.112419128417969]},{"children":[4,5,6],"name":"edges","translation":[0,1,14.5]},{"name":"edge2","translation":[0,0,-29]},{"name":"edge3","translation":[-14.5,0,-14.5]},{"name":"edge4","translation":[14.5,0,-14.5]},{"children":[8,9,10,11,12,13,14],"name":"boxes","translation":[-10,1,-9]},{"name":"CSGBox3D2","translation":[1.65618896484375,0,10.6849393844604]},{"name":"CSGBox3D8","translation":[2.87462615966797,-0.0041561126709,15.8993587493896]},{"name":"CSGBox3D4","translation":[10.3718223571777,0.000125885009765625,1.65436124801636]},{"name":"CSGBox3D6","translation":[15.0381832122803,-0.02597427368164,7.95402336120605]},{"name":"CSGBox3D3","translation":[7.05700016021729,0,5.29199981689453]},{"name":"CSGBox3D7","translation":[10.4729022979736,-0.00000333786011,12.2725219726562]},{"name":"CSGBox3D5","translation":[20.3595581054688,0,1.55459690093994]},{"name":"CSGCylinder3D","translation":[-10,0,-3]},{"name":"CSGCylinder3D3","translation":[-8.44759178161621,0.6617431640625,-12.63033866882324]},{"name":"CSGCylinder3D4","translation":[-6.77636766433716,0.664770126342773,-12.71045875549316]},{"name":"CSGCylinder3D5","translation":[-5.0620903968811,0.670827865600586,-12.83543491363525]},{"name":"CSGCylinder3D6","translation":[-3.27800321578979,0.664770126342773,-12.78624057769775]},{"name":"CSGCylinder3D7","translation":[-1.60440361499786,0.660224914550781,-12.75661087036133]},{"name":"CSGCylinder3D8","translation":[0.247117519378662,0.649625778198242,-12.64299297332764]},{"name":"CSGCylinder3D9","translation":[2.13883781433105,0.651138305664062,-12.70593070983887]},{"name":"CSGCylinder3D10","translation":[3.80890226364136,0.651397705078125,-12.85149955749512]},{"name":"CSGCylinder3D11","translation":[5.68208122253418,0.651134490966797,-12.875244140625]},{"name":"CSGCylinder3D12","translation":[7.4599723815918,0.650615692138672,-12.82867050170898]},{"name":"CSGCylinder3D13","translation":[9.04415512084961,0.649829864501953,-12.70707607269287]},{"name":"CSGCylinder3D14","translation":[-1.4159334897995,0.843323230743408,-5.43977212905884]},{"name":"CSGCylinder3D15","translation":[-1.4688401222229,0.610767364501953,-3.27302265167236]},{"name":"CSGCylinder3D16","translation":[-12.99490928649902,0.605731964111328,3.65250825881958]},{"name":"CSGCylinder3D17","translation":[-9.26778221130371,0.605789184570312,3.38736724853516]},{"name":"CSGCylinder3D18","translation":[-8.78898429870605,0.597993850708008,13.1669692993164]},{"name":"CSGCylinder3D19","translation":[-6.83451890945435,0.08721923828125,13.1669692993164]},{"name":"CSGCylinder3D20","translation":[-4.53752851486206,0.0871009826660156,13.198468208313]},{"name":"CSGCylinder3D21","translation":[-2.74461722373962,0.0870800018310547,13.1311559677124]},{"name":"CSGCylinder3D22","translation":[0.414341926574707,0.0871009826660156,12.9436502456665]},{"name":"CSGCylinder3D23","translation":[3.39779281616211,0.654705047607422,12.9436502456665]},{"name":"CSGCylinder3D24","translation":[3.39779281616211,0.997180938720703,10.1394147872925]},{"name":"CSGCylinder3D25","translation":[3.39779281616211,0.997180938720703,8.40855503082275]},{"name":"CSGCylinder3D26","translation":[3.39779281616211,0.997180938720703,6.44620037078857]},{"name":"CSGCylinder3D37","translation":[5.21189212799072,0.997180938720703,6.44620037078857]},{"name":"CSGCylinder3D27","translation":[3.39779281616211,0.997180938720703,4.69957637786865]},{"name":"CSGCylinder3D28","translation":[3.39779281616211,0.997180938720703,3.09056663513184]},{"name":"CSGCylinder3D29","translation":[9.35760116577148,0.997180938720703,3.09056663513184]},{"name":"CSGCylinder3D38","translation":[9.35760116577148,0.997180938720703,1.5693941116333]},{"name":"CSGCylinder3D39","translation":[9.35760116577148,0.997180938720703,0.115750312805176]},{"name":"CSGCylinder3D30","translation":[9.35760116577148,0.997180938720703,4.58829975128174]},{"name":"CSGCylinder3D31","translation":[9.35760116577148,0.997180938720703,6.25260734558105]},{"name":"CSGCylinder3D32","translation":[9.35760116577148,0.997180938720703,7.67064762115479]},{"name":"CSGCylinder3D33","translation":[9.35760116577148,0.997180938720703,9.53274822235107]},{"name":"CSGCylinder3D36","translation":[7.31486654281616,0.997180938720703,9.53274822235107]},{"name":"CSGCylinder3D34","translation":[9.2698860168457,0.995937347412109,11.1012010574341]},{"name":"CSGCylinder3D35","translation":[9.24058151245117,0.994903564453125,12.4019823074341]}],"scene":0,"scenes":[{"nodes":[0]}]}