{"accessors":[{"bufferView":0,"byteOffset":0,"componentType":5126,"count":300,"max":[15.0000009536743,0.5,15],"min":[-15.00000095367432,-0.5,-15.00000190734863],"normalized":false,"type":"VEC3"},{"bufferView":1,"byteOffset":0,"componentType":5126,"count":300,"max":[0.99060595035553,0.0000641329243080691,0.99060595035553,1],"min":[-1,-1,-1,-1],"normalized":false,"type":"VEC4"},{"bufferView":2,"byteOffset":0,"componentType":5126,"count":300,"max":[1,1,1],"min":[-1,-1,-1],"normalized":false,"type":"VEC3"},{"bufferView":3,"byteOffset":0,"componentType":5126,"count":300,"max":[1,1],"min":[0,0],"normalized":false,"type":"VEC2"},{"bufferView":4,"byteOffset":0,"componentType":5123,"count":300,"max":[299],"min":[0],"normalized":false,"type":"SCALAR"}],"asset":{"generator":"Godot Engine v4.3.stable.official@77dcf97d82cbfe4e4615475fa52ca03da645dbd8","version":"2.0"},"bufferViews":[{"buffer":0,"byteLength":3600,"byteOffset":0,"byteStride":12,"target":34962},{"buffer":0,"byteLength":4800,"byteOffset":3600,"byteStride":16,"target":34962},{"buffer":0,"byteLength":3600,"byteOffset":8400,"byteStride":12,"target":34962},{"buffer":0,"byteLength":2400,"byteOffset":12000,"byteStride":8,"target":34962},{"buffer":0,"byteLength":600,"byteOffset":14400,"target":34963}],"buffers":[{"byteLength":15000,"uri":"playarea10.bin"}],"extensionsUsed":["GODOT_single_root","OMI_physics_body"],"materials":[{"extensions":{},"pbrMetallicRoughness":{"baseColorFactor":[0.99999988079071,0.99999988079071,0.99999988079071,1],"metallicFactor":0,"roughnessFactor":1}}],"meshes":[{"extras":{"targetNames":[]},"primitives":[{"attributes":{"NORMAL":2,"POSITION":0,"TANGENT":1,"TEXCOORD_0":3},"indices":4,"material":0,"mode":4}]}],"nodes":[{"children":[1],"name":"Node3D"},{"children":[2],"extensions":{"OMI_physics_body":{"motion":{"type":"dynamic"}}},"name":"RigidBody3D"},{"children":[3],"name":"MeshInstance3D"},{"children":[4,5],"mesh":0,"name":"CSGMesh3D2"},{"name":"CSGBox3D"},{"name":"CSGCylinder3D","translation":[0.00113296508789062,-0.00308179855347,-0.00582981109619]}],"scene":0,"scenes":[{"nodes":[0]}]}